# xmcd CD database file
#
# Track frame offsets:
#	187
#	30597
#	49075
#	69432
#	91347
#	120940
#	143770
#	184902
#
# Disc length: 2635 seconds
#
# Revision: 4
# Processed by: cddbd v1.5PL3 Copyright (c) Steve Scherf et al.
# Submitted via: CDex 1.51
#
DISCID=630a4908
DTITLE=高中正義 - SUPER TAKANAKA LIVE!
DYEAR=1979
DGENRE=Instrumental
TTITLE0=BLUE LAGOON
TTITLE1=EXPLOSION
TTITLE2=珊瑚礁の妖精
TTITLE3=RAINY DAY BLUE
TTITLE4=TROPIC BIRD
TTITLE5=DISCO "B"
TTITLE6=READY TO FLY
TTITLE7=黒船
EXTD=YEAR: 1979
EXTT0=
EXTT1=
EXTT2=
EXTT3=
EXTT4=
EXTT5=
EXTT6=
EXTT7=
PLAYORDER=
